HIERARCHY
ROOT Hips
{
	OFFSET 0.00000 0.00000 0.00000
	CHANNELS 6 Xposition Yposition Zposition Yrotation Zrotation Xrotation 
	JOINT Lumbar
	{
		OFFSET 0 0 0
		CHANNELS 3 Zrotation Xrotation Yrotation
		JOINT Neck
		{
			OFFSET 0.00 0.2701 0.00
			CHANNELS 3 Zrotation Xrotation Yrotation
			End Site
			{
				OFFSET 0.00 0.1379 0.00
			}
		}
		JOINT RightShoulder
		{
			OFFSET 0.0119 0.2289 0.1181
			CHANNELS 3 Zrotation Xrotation Yrotation
			JOINT RightElbow
			{
				OFFSET 0.00 -0.1475 0.00
				CHANNELS 2 Zrotation Yrotation
				JOINT RightWrist
				{
					OFFSET 0.00 -0.1605 0.00
					CHANNELS 2 Zrotation Xrotation
					End Site
					{
						OFFSET 0.0040 -0.1068 0.0006
					}
				}
			}
		}
		JOINT LeftShoulder
		{
			OFFSET 0.0119 0.2289 -0.1181
			CHANNELS 3 Zrotation Xrotation Yrotation
			JOINT LeftElbow
			{
				OFFSET 0.00 -0.1475 0.00
				CHANNELS 2 Zrotation Yrotation
				JOINT LeftWrist
				{
					OFFSET 0.00 -0.1605 0.00
					CHANNELS 2 Zrotation Xrotation
					End Site
					{
						OFFSET 0.0040 -0.1068 -0.0006
					}
				}
			}
		}
	}
	JOINT RightHip
	{
		OFFSET 0.0316 -0.0424 0.0458
		CHANNELS 3 Zrotation Xrotation Yrotation
		JOINT RightKnee
		{
			OFFSET 0.00 -0.2438 0.00
			CHANNELS 1 Zrotation
			JOINT RightAnkle
			{
				OFFSET 0.00 -0.2449 0.00
				CHANNELS 3 Zrotation Xrotation Yrotation
				End Site
				{
					OFFSET 0.1237 -0.0542 0.0051
				}
			}
		}
	}
	JOINT LeftHip
	{
		OFFSET 0.0316 -0.0424 -0.0458
		CHANNELS 3 Zrotation Xrotation Yrotation
		JOINT LeftKnee
		{
			OFFSET 0.00 -0.2438 0.00
			CHANNELS 1 Zrotation
			JOINT LeftAnkle
			{
				OFFSET 0.00 -0.2449 0.00
				CHANNELS 3 Zrotation Xrotation Yrotation
				End Site
				{
					OFFSET 0.1237 -0.0542 -0.0051
				}
			}
		}
	}
}
MOTION
Frames: 11
Frame Time: 0.02
-0.00202 -0.00043 0.00106 100.29509 -32.951 -7.5892 40.58545 1.21238 -9.21363 -15.4094 -4.4226 -1.4214 -27.20839 -10.73859 0.74117 46.04452 83.96213 0.0798 0.51156 -22.39169 12.44419 -3.92657 30.18609 -82.23174 -2.32315 -5.89782 42.22665 -1.70993 -15.59068 -19.44816 -8.69462 -0.94939 -2.80745 37.35542 6.08689 8.85855 -27.85953 -8.9919 4.282 4.44257
-0.00083 -0.00035 0.00196 100.21101 -32.99457 -7.5391 40.00601 1.19164 -9.28705 -15.47713 -4.8929 -1.43937 -27.61625 -10.82918 0.86301 46.24332 83.97803 0.07763 0.51806 -22.04159 12.41678 -4.21982 29.70472 -82.22956 -2.29494 -5.69796 42.39935 -1.56956 -15.32727 -19.45126 -8.70109 -1.00341 -2.83321 37.45573 6.20873 9.21438 -27.84619 -8.95501 4.25528 4.42776
0.00035 -0.00027 0.00286 100.12741 -33.03824 -7.4891 39.4277 1.17104 -9.36061 -15.54473 -5.36247 -1.4573 -28.02338 -10.91992 0.98472 46.44186 83.9941 0.07566 0.52458 -21.69188 12.3895 -4.51298 29.22479 -82.22739 -2.26674 -5.49839 42.57185 -1.42957 -15.06466 -19.45449 -8.70755 -1.05727 -2.85889 37.55602 6.33037 9.56928 -27.8329 -8.91819 4.22861 4.41298
0.00154 -0.00019 0.00375 100.0436 -33.08171 -7.43915 38.84993 1.15038 -9.43387 -15.61227 -5.83144 -1.47522 -28.43009 -11.01031 1.10624 46.64013 84.00997 0.07351 0.53107 -21.34275 12.36218 -4.80547 28.74485 -82.22522 -2.23861 -5.29911 42.74408 -1.28962 -14.80204 -19.4576 -8.714 -1.11113 -2.88457 37.65607 6.45188 9.92409 -27.8196 -8.88141 4.20196 4.39821
0.00272 -0.00011 0.00465 99.95927 -33.12499 -7.38912 38.27128 1.12953 -9.50684 -15.67989 -6.30084 -1.49317 -28.83729 -11.10039 1.22779 46.83846 84.02565 0.07112 0.53752 -20.99347 12.33472 -5.09772 28.26362 -82.22302 -2.21049 -5.09964 42.91637 -1.14932 -14.53865 -19.46052 -8.72047 -1.16516 -2.91033 37.75605 6.57348 10.27961 -27.80623 -8.84457 4.17529 4.38343
0.00391 -3e-05 0.00555 99.87724 -33.16951 -7.33916 37.69372 1.10947 -9.58163 -15.74742 -6.77071 -1.51106 -29.24424 -11.1925 1.34983 47.03738 84.04256 0.07005 0.54416 -20.6429 12.30783 -5.39277 27.78651 -82.22094 -2.18209 -4.89987 43.0893 -1.00998 -14.27772 -19.46441 -8.72691 -1.21864 -2.93583 37.85699 6.69521 10.6331 -27.79312 -8.80782 4.14863 4.36866
0.00509 5e-05 0.00645 99.79055 -33.21146 -7.28917 37.11463 1.08785 -9.6527 -15.81509 -7.23917 -1.52905 -29.6513 -11.28042 1.4708 47.23507 84.05685 0.06623 0.55043 -20.29533 12.27978 -5.68192 27.30135 -82.21861 -2.15435 -4.70097 43.26081 -0.86886 -14.01207 -19.46635 -8.73341 -1.27316 -2.96182 37.95587 6.81663 10.99068 -27.77952 -8.77089 4.12196 4.35387
0.00628 0.00013 0.00735 99.70838 -33.25583 -7.23912 36.53691 1.06769 -9.72715 -15.88259 -7.70886 -1.54695 -30.05816 -11.37221 1.59263 47.43359 84.07377 0.06513 0.55703 -19.94496 12.2529 -5.97639 26.8241 -82.21653 -2.12589 -4.50118 43.43353 -0.7294 -13.75088 -19.47006 -8.73981 -1.32675 -2.98737 38.05667 6.93817 11.34375 -27.76635 -8.7342 4.09533 4.33912
0.00747 0.00021 0.00822 99.63086 -33.30299 -7.18933 35.96064 1.04922 -9.80605 -15.9501 -8.18065 -1.56475 -30.46546 -11.46884 1.7161 47.63447 84.09311 0.06667 0.56406 -19.59102 12.22705 -6.27813 26.35437 -82.21468 -2.09695 -4.30052 43.60823 -0.59183 -13.49459 -19.47608 -8.74626 -1.3791 -3.01237 38.15981 7.0606 11.69444 -27.75375 -8.69752 4.0686 4.32432
0.00864 0.00029 0.0092 99.52395 -33.3336 -7.13901 35.37531 1.02073 -9.86028 -16.01821 -8.64216 -1.58316 -30.8723 -11.53796 1.83191 47.82582 84.09616 0.05093 0.56874 -19.25716 12.19406 -6.54034 25.83492 -82.21128 -2.07196 -4.10551 43.77304 -0.44294 -13.20843 -19.46923 -8.75294 -1.43829 -3.0405 38.24949 7.18013 12.06825 -27.73801 -8.65992 4.04199 4.3095
0.00984 0.00037 0.00995 99.48072 -33.39943 -7.08919 34.80967 1.01357 -9.96595 -16.08459 -9.12411 -1.60026 -31.2787 -11.66483 1.96271 48.03465 84.13503 0.07299 0.57829 -18.88133 12.17692 -6.88438 25.42455 -82.21128 -2.03792 -3.89821 43.95772 -0.31824 -12.9864 -19.48927 -8.75882 -1.48321 -3.06206 38.36753 7.30435 12.3872 -27.72883 -8.6248 4.01545 4.29493
